<?xml version="1.0" encoding="UTF-8" standalone="no"?>
<!DOCTYPE svg PUBLIC "-//W3C//DTD SVG 1.1//EN"
 "http://www.w3.org/Graphics/SVG/1.1/DTD/svg11.dtd">
<!-- Generated by graphviz version 2.38.0 (20140413.2041)
 -->
<!-- Title: Language Pages: 1 -->
<svg width="1168pt" height="883pt"
 viewBox="0.00 0.00 1168.15 882.52" xmlns="http://www.w3.org/2000/svg" xmlns:xlink="http://www.w3.org/1999/xlink">
<g id="graph0" class="graph" transform="scale(1 1) rotate(0) translate(4 878.523)">
<title>Language</title>
<polygon fill="white" stroke="none" points="-4,4 -4,-878.523 1164.15,-878.523 1164.15,4 -4,4"/>
<!-- snap -->
<g id="node1" class="node"><title>snap</title>
<path fill="#f7bc05" stroke="#f7bc05" d="M283.21,-180.266C283.21,-180.266 253.21,-180.266 253.21,-180.266 247.21,-180.266 241.21,-174.266 241.21,-168.266 241.21,-168.266 241.21,-156.266 241.21,-156.266 241.21,-150.266 247.21,-144.266 253.21,-144.266 253.21,-144.266 283.21,-144.266 283.21,-144.266 289.21,-144.266 295.21,-150.266 295.21,-156.266 295.21,-156.266 295.21,-168.266 295.21,-168.266 295.21,-174.266 289.21,-180.266 283.21,-180.266"/>
<text text-anchor="middle" x="268.21" y="-159.732" font-family="sans-serif" font-size="12.00">Snap!</text>
</g>
<!-- scheme -->
<g id="node2" class="node"><title>scheme</title>
<path fill="#f7bc05" stroke="#f7bc05" d="M547.342,-36C547.342,-36 511.078,-36 511.078,-36 505.078,-36 499.078,-30 499.078,-24 499.078,-24 499.078,-12 499.078,-12 499.078,-6 505.078,-0 511.078,-0 511.078,-0 547.342,-0 547.342,-0 553.342,-0 559.342,-6 559.342,-12 559.342,-12 559.342,-24 559.342,-24 559.342,-30 553.342,-36 547.342,-36"/>
<text text-anchor="middle" x="529.21" y="-15.4664" font-family="sans-serif" font-size="12.00">Scheme</text>
</g>
<!-- python -->
<g id="node3" class="node"><title>python</title>
<path fill="#f7bc05" stroke="#f7bc05" d="M891.768,-338.797C891.768,-338.797 860.652,-338.797 860.652,-338.797 854.652,-338.797 848.652,-332.797 848.652,-326.797 848.652,-326.797 848.652,-314.797 848.652,-314.797 848.652,-308.797 854.652,-302.797 860.652,-302.797 860.652,-302.797 891.768,-302.797 891.768,-302.797 897.768,-302.797 903.768,-308.797 903.768,-314.797 903.768,-314.797 903.768,-326.797 903.768,-326.797 903.768,-332.797 897.768,-338.797 891.768,-338.797"/>
<text text-anchor="middle" x="876.21" y="-318.263" font-family="sans-serif" font-size="12.00">Python</text>
</g>
<!-- javascript -->
<g id="node4" class="node"><title>javascript</title>
<path fill="#f7bc05" stroke="#f7bc05" d="M231.226,-338.797C231.226,-338.797 83.1937,-338.797 83.1937,-338.797 77.1937,-338.797 71.1937,-332.797 71.1937,-326.797 71.1937,-326.797 71.1937,-314.797 71.1937,-314.797 71.1937,-308.797 77.1937,-302.797 83.1937,-302.797 83.1937,-302.797 231.226,-302.797 231.226,-302.797 237.226,-302.797 243.226,-308.797 243.226,-314.797 243.226,-314.797 243.226,-326.797 243.226,-326.797 243.226,-332.797 237.226,-338.797 231.226,-338.797"/>
<text text-anchor="middle" x="157.21" y="-318.263" font-family="sans-serif" font-size="12.00">JavaScript (with HTML/CSS)</text>
</g>
<!-- haskell -->
<g id="node5" class="node"><title>haskell</title>
<path fill="#f7bc05" stroke="#f7bc05" d="M350.755,-36C350.755,-36 317.665,-36 317.665,-36 311.665,-36 305.665,-30 305.665,-24 305.665,-24 305.665,-12 305.665,-12 305.665,-6 311.665,-0 317.665,-0 317.665,-0 350.755,-0 350.755,-0 356.755,-0 362.755,-6 362.755,-12 362.755,-12 362.755,-24 362.755,-24 362.755,-30 356.755,-36 350.755,-36"/>
<text text-anchor="middle" x="334.21" y="-15.4664" font-family="sans-serif" font-size="12.00">Haskell</text>
</g>
<!-- c -->
<g id="node6" class="node"><title>c</title>
<path fill="#f7bc05" stroke="#f7bc05" d="M584.21,-490.395C584.21,-490.395 554.21,-490.395 554.21,-490.395 548.21,-490.395 542.21,-484.395 542.21,-478.395 542.21,-478.395 542.21,-466.395 542.21,-466.395 542.21,-460.395 548.21,-454.395 554.21,-454.395 554.21,-454.395 584.21,-454.395 584.21,-454.395 590.21,-454.395 596.21,-460.395 596.21,-466.395 596.21,-466.395 596.21,-478.395 596.21,-478.395 596.21,-484.395 590.21,-490.395 584.21,-490.395"/>
<text text-anchor="middle" x="569.21" y="-469.861" font-family="sans-serif" font-size="12.00">C</text>
</g>
<!-- java -->
<g id="node7" class="node"><title>java</title>
<path fill="#f7bc05" stroke="#f7bc05" d="M699.21,-338.797C699.21,-338.797 669.21,-338.797 669.21,-338.797 663.21,-338.797 657.21,-332.797 657.21,-326.797 657.21,-326.797 657.21,-314.797 657.21,-314.797 657.21,-308.797 663.21,-302.797 669.21,-302.797 669.21,-302.797 699.21,-302.797 699.21,-302.797 705.21,-302.797 711.21,-308.797 711.21,-314.797 711.21,-314.797 711.21,-326.797 711.21,-326.797 711.21,-332.797 705.21,-338.797 699.21,-338.797"/>
<text text-anchor="middle" x="684.21" y="-318.263" font-family="sans-serif" font-size="12.00">Java</text>
</g>
<!-- objc -->
<g id="node8" class="node"><title>objc</title>
<path fill="#f7bc05" stroke="#f7bc05" d="M529.133,-338.797C529.133,-338.797 467.287,-338.797 467.287,-338.797 461.287,-338.797 455.287,-332.797 455.287,-326.797 455.287,-326.797 455.287,-314.797 455.287,-314.797 455.287,-308.797 461.287,-302.797 467.287,-302.797 467.287,-302.797 529.133,-302.797 529.133,-302.797 535.133,-302.797 541.133,-308.797 541.133,-314.797 541.133,-314.797 541.133,-326.797 541.133,-326.797 541.133,-332.797 535.133,-338.797 529.133,-338.797"/>
<text text-anchor="middle" x="498.21" y="-318.263" font-family="sans-serif" font-size="12.00">Objective&#45;C</text>
</g>
<!-- powerful -->
<g id="node9" class="node"><title>powerful</title>
<polygon fill="#83d6de" stroke="#83d6de" points="453.105,-800.523 257.315,-800.523 257.315,-764.523 453.105,-764.523 453.105,-800.523"/>
<text text-anchor="middle" x="355.21" y="-779.99" font-family="sans-serif" font-size="12.00">Scratch isn&#39;t enough because…</text>
</g>
<!-- powerful_yes -->
<g id="node15" class="node"><title>powerful_yes</title>
<text text-anchor="middle" x="279.21" y="-628.525" font-family="sans-serif" font-size="12.00">It doesn&#39;t have &quot;advanced&quot;</text>
<text text-anchor="middle" x="279.21" y="-614.392" font-family="sans-serif" font-size="12.00">CS features like lambda.</text>
</g>
<!-- powerful&#45;&gt;powerful_yes -->
<g id="edge2" class="edge"><title>powerful&#45;&gt;powerful_yes</title>
<path fill="none" stroke="black" d="M304.342,-764.338C304.342,-764.338 304.342,-650.454 304.342,-650.454"/>
<ellipse fill="none" stroke="black" cx="304.342" cy="-646.454" rx="4" ry="4"/>
</g>
<!-- powerful_no -->
<g id="node16" class="node"><title>powerful_no</title>
<text text-anchor="middle" x="446.21" y="-714.923" font-family="sans-serif" font-size="12.00">It doesn&#39;t let you program</text>
<text text-anchor="middle" x="446.21" y="-700.791" font-family="sans-serif" font-size="12.00">the &quot;real world&quot; (create files,</text>
<text text-anchor="middle" x="446.21" y="-686.658" font-family="sans-serif" font-size="12.00">do networking, graphics, etc.)</text>
</g>
<!-- powerful&#45;&gt;powerful_no -->
<g id="edge3" class="edge"><title>powerful&#45;&gt;powerful_no</title>
<path fill="none" stroke="black" d="M402.289,-764.154C402.289,-764.154 402.289,-736.792 402.289,-736.792"/>
<ellipse fill="none" stroke="black" cx="402.289" cy="-732.792" rx="4" ry="4"/>
</g>
<!-- rules -->
<g id="node10" class="node"><title>rules</title>
<polygon fill="#83d6de" stroke="#83d6de" points="471.468,-180.266 390.952,-180.266 390.952,-144.266 471.468,-144.266 471.468,-180.266"/>
<text text-anchor="middle" x="431.21" y="-159.732" font-family="sans-serif" font-size="12.00">Rules are…</text>
</g>
<!-- rules_good -->
<g id="node17" class="node"><title>rules_good</title>
<text text-anchor="middle" x="334.21" y="-94.6656" font-family="sans-serif" font-size="12.00">The fabric of society,</text>
<text text-anchor="middle" x="334.21" y="-80.5328" font-family="sans-serif" font-size="12.00">allowing fallible humans to coexist.</text>
</g>
<!-- rules&#45;&gt;rules_good -->
<g id="edge35" class="edge"><title>rules&#45;&gt;rules_good</title>
<path fill="none" stroke="black" d="M417.736,-144.063C417.736,-144.063 417.736,-116.329 417.736,-116.329"/>
<ellipse fill="none" stroke="black" cx="417.736" cy="-112.329" rx="4" ry="4"/>
</g>
<!-- rules_bad -->
<g id="node18" class="node"><title>rules_bad</title>
<text text-anchor="middle" x="529.21" y="-87.5992" font-family="sans-serif" font-size="12.00">Meant to be broken!</text>
</g>
<!-- rules&#45;&gt;rules_bad -->
<g id="edge36" class="edge"><title>rules&#45;&gt;rules_bad</title>
<path fill="none" stroke="black" d="M466.924,-144.063C466.924,-144.063 466.924,-116.329 466.924,-116.329"/>
<ellipse fill="none" stroke="black" cx="466.924" cy="-112.329" rx="4" ry="4"/>
</g>
<!-- images -->
<g id="node11" class="node"><title>images</title>
<polygon fill="#83d6de" stroke="#83d6de" points="437.488,-339.063 260.932,-339.063 260.932,-302.53 437.488,-302.53 437.488,-339.063"/>
<text text-anchor="middle" x="349.21" y="-325.33" font-family="sans-serif" font-size="12.00">I still like blocks and sprites</text>
<text text-anchor="middle" x="349.21" y="-311.197" font-family="sans-serif" font-size="12.00">and Scratch&#45;like things.</text>
</g>
<!-- images_good -->
<g id="node19" class="node"><title>images_good</title>
<text text-anchor="middle" x="268.21" y="-253.064" font-family="sans-serif" font-size="12.00">Yeah! Sprites are the</text>
<text text-anchor="middle" x="268.21" y="-238.931" font-family="sans-serif" font-size="12.00">hottest thing since</text>
<text text-anchor="middle" x="268.21" y="-224.798" font-family="sans-serif" font-size="12.00">sliced bread.</text>
</g>
<!-- images&#45;&gt;images_good -->
<g id="edge31" class="edge"><title>images&#45;&gt;images_good</title>
<path fill="none" stroke="black" d="M298.45,-302.397C298.45,-302.397 298.45,-274.675 298.45,-274.675"/>
<ellipse fill="none" stroke="black" cx="298.45" cy="-270.675" rx="4" ry="4"/>
</g>
<!-- images_bad -->
<g id="node20" class="node"><title>images_bad</title>
<text text-anchor="middle" x="431.21" y="-245.998" font-family="sans-serif" font-size="12.00">I&#39;m ready to move on to</text>
<text text-anchor="middle" x="431.21" y="-231.865" font-family="sans-serif" font-size="12.00">text&#45;based things.</text>
</g>
<!-- images&#45;&gt;images_bad -->
<g id="edge32" class="edge"><title>images&#45;&gt;images_bad</title>
<path fill="none" stroke="black" d="M395.702,-302.397C395.702,-302.397 395.702,-267.765 395.702,-267.765"/>
<ellipse fill="none" stroke="black" cx="395.702" cy="-263.765" rx="4" ry="4"/>
</g>
<!-- create -->
<g id="node12" class="node"><title>create</title>
<polygon fill="#83d6de" stroke="#83d6de" points="610.847,-641.992 451.573,-641.992 451.573,-605.992 610.847,-605.992 610.847,-641.992"/>
<text text-anchor="middle" x="531.21" y="-621.459" font-family="sans-serif" font-size="12.00">I want to learn so I can…</text>
</g>
<!-- create_website -->
<g id="node21" class="node"><title>create_website</title>
<text text-anchor="middle" x="328.21" y="-476.927" font-family="sans-serif" font-size="12.00">Design websites,</text>
<text text-anchor="middle" x="328.21" y="-462.795" font-family="sans-serif" font-size="12.00">web apps, etc.</text>
</g>
<!-- create&#45;&gt;create_website -->
<g id="edge5" class="edge"><title>create&#45;&gt;create_website</title>
<path fill="none" stroke="black" d="M501.469,-605.917C501.469,-570.199 501.469,-494 501.469,-494 501.469,-494 348.208,-494 348.208,-494 348.208,-494 348.208,-493.662 348.208,-493.662"/>
<ellipse fill="none" stroke="black" cx="348.208" cy="-494.624" rx="4" ry="4"/>
</g>
<!-- create_backend -->
<g id="node22" class="node"><title>create_backend</title>
<text text-anchor="middle" x="1062.21" y="-549.193" font-family="sans-serif" font-size="12.00">Program servers and databases</text>
</g>
<!-- create&#45;&gt;create_backend -->
<g id="edge6" class="edge"><title>create&#45;&gt;create_backend</title>
<path fill="none" stroke="black" d="M610.993,-632C759.229,-632 1062.21,-632 1062.21,-632 1062.21,-632 1062.21,-577.942 1062.21,-577.942"/>
<ellipse fill="none" stroke="black" cx="1062.21" cy="-573.942" rx="4" ry="4"/>
</g>
<!-- create_games -->
<g id="node23" class="node"><title>create_games</title>
<text text-anchor="middle" x="108.21" y="-469.861" font-family="sans-serif" font-size="12.00">Make a web game like Flappy Bird.</text>
</g>
<!-- create&#45;&gt;create_games -->
<g id="edge7" class="edge"><title>create&#45;&gt;create_games</title>
<path fill="none" stroke="black" d="M465.07,-605.93C465.07,-596.539 465.07,-587 465.07,-587 465.07,-587 205.842,-587 205.842,-587 205.842,-587 205.842,-498.554 205.842,-498.554"/>
<ellipse fill="none" stroke="black" cx="205.842" cy="-494.554" rx="4" ry="4"/>
</g>
<!-- create_apps -->
<g id="node24" class="node"><title>create_apps</title>
<text text-anchor="middle" x="402.21" y="-556.259" font-family="sans-serif" font-size="12.00">Make a million&#45;dollar app</text>
<text text-anchor="middle" x="402.21" y="-542.127" font-family="sans-serif" font-size="12.00">and get acquired by Google.</text>
</g>
<!-- create&#45;&gt;create_apps -->
<g id="edge8" class="edge"><title>create&#45;&gt;create_apps</title>
<path fill="none" stroke="black" d="M478.748,-605.757C478.748,-605.757 478.748,-577.956 478.748,-577.956"/>
<ellipse fill="none" stroke="black" cx="478.748" cy="-573.956" rx="4" ry="4"/>
</g>
<!-- create_science -->
<g id="node25" class="node"><title>create_science</title>
<text text-anchor="middle" x="876.21" y="-556.259" font-family="sans-serif" font-size="12.00">Do science, statistics,</text>
<text text-anchor="middle" x="876.21" y="-542.127" font-family="sans-serif" font-size="12.00">data analysis</text>
</g>
<!-- create&#45;&gt;create_science -->
<g id="edge9" class="edge"><title>create&#45;&gt;create_science</title>
<path fill="none" stroke="black" d="M611.227,-623C713.144,-623 876.21,-623 876.21,-623 876.21,-623 876.21,-578.081 876.21,-578.081"/>
<ellipse fill="none" stroke="black" cx="876.21" cy="-574.081" rx="4" ry="4"/>
</g>
<!-- create_apcs -->
<g id="node26" class="node"><title>create_apcs</title>
<text text-anchor="middle" x="715.21" y="-556.259" font-family="sans-serif" font-size="12.00">Take the AP Computer</text>
<text text-anchor="middle" x="715.21" y="-542.127" font-family="sans-serif" font-size="12.00">Science exam</text>
</g>
<!-- create&#45;&gt;create_apcs -->
<g id="edge10" class="edge"><title>create&#45;&gt;create_apcs</title>
<path fill="none" stroke="black" d="M611.112,-614C660.769,-614 715.21,-614 715.21,-614 715.21,-614 715.21,-578.074 715.21,-578.074"/>
<ellipse fill="none" stroke="black" cx="715.21" cy="-574.074" rx="4" ry="4"/>
</g>
<!-- create_unix -->
<g id="node27" class="node"><title>create_unix</title>
<text text-anchor="middle" x="567.21" y="-556.259" font-family="sans-serif" font-size="12.00">Learn how my</text>
<text text-anchor="middle" x="567.21" y="-542.127" font-family="sans-serif" font-size="12.00">computer works.</text>
</g>
<!-- create&#45;&gt;create_unix -->
<g id="edge11" class="edge"><title>create&#45;&gt;create_unix</title>
<path fill="none" stroke="black" d="M560.771,-605.757C560.771,-605.757 560.771,-577.956 560.771,-577.956"/>
<ellipse fill="none" stroke="black" cx="560.771" cy="-573.956" rx="4" ry="4"/>
</g>
<!-- create_apcs_sure -->
<g id="node13" class="node"><title>create_apcs_sure</title>
<polygon fill="#83d6de" stroke="#83d6de" points="794.2,-497.795 636.22,-497.795 636.22,-446.995 794.2,-446.995 794.2,-497.795"/>
<text text-anchor="middle" x="715.21" y="-483.994" font-family="sans-serif" font-size="12.00">Are you sure?</text>
<text text-anchor="middle" x="715.21" y="-469.861" font-family="sans-serif" font-size="12.00">You won&#39;t learn as much</text>
<text text-anchor="middle" x="715.21" y="-455.728" font-family="sans-serif" font-size="12.00">as you think you will.</text>
</g>
<!-- create_apcs_sure_yes -->
<g id="node28" class="node"><title>create_apcs_sure_yes</title>
<text text-anchor="middle" x="781.21" y="-397.595" font-family="sans-serif" font-size="12.00">Yeah, it&#39;ll look good</text>
<text text-anchor="middle" x="781.21" y="-383.462" font-family="sans-serif" font-size="12.00">on college apps.</text>
</g>
<!-- create_apcs_sure&#45;&gt;create_apcs_sure_yes -->
<g id="edge17" class="edge"><title>create_apcs_sure&#45;&gt;create_apcs_sure_yes</title>
<path fill="none" stroke="black" d="M754.784,-446.857C754.784,-446.857 754.784,-419.263 754.784,-419.263"/>
<ellipse fill="none" stroke="black" cx="754.784" cy="-415.263" rx="4" ry="4"/>
</g>
<!-- create_apcs_sure_no -->
<g id="node29" class="node"><title>create_apcs_sure_no</title>
<text text-anchor="middle" x="643.21" y="-397.595" font-family="sans-serif" font-size="12.00">Hmm, I do want</text>
<text text-anchor="middle" x="643.21" y="-383.462" font-family="sans-serif" font-size="12.00">to learn a lot.</text>
</g>
<!-- create_apcs_sure&#45;&gt;create_apcs_sure_no -->
<g id="edge19" class="edge"><title>create_apcs_sure&#45;&gt;create_apcs_sure_no</title>
<path fill="none" stroke="black" d="M666.861,-446.857C666.861,-446.857 666.861,-419.263 666.861,-419.263"/>
<ellipse fill="none" stroke="black" cx="666.861" cy="-415.263" rx="4" ry="4"/>
</g>
<!-- create_app_os -->
<g id="node14" class="node"><title>create_app_os</title>
<polygon fill="#83d6de" stroke="#83d6de" points="524.056,-490.661 402.364,-490.661 402.364,-454.128 524.056,-454.128 524.056,-490.661"/>
<text text-anchor="middle" x="463.21" y="-476.927" font-family="sans-serif" font-size="12.00">What&#39;s your target</text>
<text text-anchor="middle" x="463.21" y="-462.795" font-family="sans-serif" font-size="12.00">platform?</text>
</g>
<!-- os_android -->
<g id="node30" class="node"><title>os_android</title>
<text text-anchor="middle" x="539.21" y="-390.529" font-family="sans-serif" font-size="12.00">Android</text>
</g>
<!-- create_app_os&#45;&gt;os_android -->
<g id="edge23" class="edge"><title>create_app_os&#45;&gt;os_android</title>
<path fill="none" stroke="black" d="M515.901,-453.995C515.901,-453.995 515.901,-419.089 515.901,-419.089"/>
<ellipse fill="none" stroke="black" cx="515.901" cy="-415.089" rx="4" ry="4"/>
</g>
<!-- os_ios -->
<g id="node31" class="node"><title>os_ios</title>
<text text-anchor="middle" x="463.21" y="-390.529" font-family="sans-serif" font-size="12.00">iOS</text>
</g>
<!-- create_app_os&#45;&gt;os_ios -->
<g id="edge24" class="edge"><title>create_app_os&#45;&gt;os_ios</title>
<path fill="none" stroke="black" d="M463.21,-453.995C463.21,-453.995 463.21,-419.089 463.21,-419.089"/>
<ellipse fill="none" stroke="black" cx="463.21" cy="-415.089" rx="4" ry="4"/>
</g>
<!-- os_all -->
<g id="node32" class="node"><title>os_all</title>
<text text-anchor="middle" x="356.21" y="-390.529" font-family="sans-serif" font-size="12.00">Everything at once</text>
</g>
<!-- create_app_os&#45;&gt;os_all -->
<g id="edge25" class="edge"><title>create_app_os&#45;&gt;os_all</title>
<path fill="none" stroke="black" d="M410.158,-453.995C410.158,-453.995 410.158,-419.089 410.158,-419.089"/>
<ellipse fill="none" stroke="black" cx="410.158" cy="-415.089" rx="4" ry="4"/>
</g>
<!-- powerful_yes&#45;&gt;images -->
<g id="edge30" class="edge"><title>powerful_yes&#45;&gt;images</title>
<path fill="none" stroke="black" d="M266.535,-605.482C266.535,-605.482 266.535,-347.064 266.535,-347.064"/>
<ellipse fill="none" stroke="black" cx="266.535" cy="-343.064" rx="4" ry="4"/>
</g>
<!-- powerful_no&#45;&gt;create -->
<g id="edge4" class="edge"><title>powerful_no&#45;&gt;create</title>
<path fill="none" stroke="black" d="M496.195,-677.786C496.195,-677.786 496.195,-650.193 496.195,-650.193"/>
<ellipse fill="none" stroke="black" cx="496.195" cy="-646.193" rx="4" ry="4"/>
</g>
<!-- rules_good&#45;&gt;haskell -->
<g id="edge37" class="edge"><title>rules_good&#45;&gt;haskell</title>
<path fill="none" stroke="black" d="M334.21,-71.9307C334.21,-71.9307 334.21,-44.1963 334.21,-44.1963"/>
<ellipse fill="none" stroke="black" cx="334.21" cy="-40.1963" rx="4" ry="4"/>
</g>
<!-- rules_bad&#45;&gt;scheme -->
<g id="edge38" class="edge"><title>rules_bad&#45;&gt;scheme</title>
<path fill="none" stroke="black" d="M529.21,-71.9307C529.21,-71.9307 529.21,-44.1963 529.21,-44.1963"/>
<ellipse fill="none" stroke="black" cx="529.21" cy="-40.1963" rx="4" ry="4"/>
</g>
<!-- images_good&#45;&gt;snap -->
<g id="edge33" class="edge"><title>images_good&#45;&gt;snap</title>
<path fill="none" stroke="black" d="M268.21,-215.97C268.21,-215.97 268.21,-188.436 268.21,-188.436"/>
<ellipse fill="none" stroke="black" cx="268.21" cy="-184.436" rx="4" ry="4"/>
</g>
<!-- images_bad&#45;&gt;rules -->
<g id="edge34" class="edge"><title>images_bad&#45;&gt;rules</title>
<path fill="none" stroke="black" d="M431.21,-223.096C431.21,-223.096 431.21,-188.535 431.21,-188.535"/>
<ellipse fill="none" stroke="black" cx="431.21" cy="-184.535" rx="4" ry="4"/>
</g>
<!-- create_website&#45;&gt;javascript -->
<g id="edge12" class="edge"><title>create_website&#45;&gt;javascript</title>
<path fill="none" stroke="black" d="M271.712,-472C247.83,-472 225.436,-472 225.436,-472 225.436,-472 225.436,-347.036 225.436,-347.036"/>
<ellipse fill="none" stroke="black" cx="225.436" cy="-343.036" rx="4" ry="4"/>
</g>
<!-- create_backend&#45;&gt;python -->
<g id="edge13" class="edge"><title>create_backend&#45;&gt;python</title>
<path fill="none" stroke="black" d="M1062.21,-533.543C1062.21,-478.916 1062.21,-320 1062.21,-320 1062.21,-320 912.056,-320 912.056,-320"/>
<ellipse fill="none" stroke="black" cx="908.056" cy="-320" rx="4" ry="4"/>
</g>
<!-- create_games&#45;&gt;javascript -->
<g id="edge14" class="edge"><title>create_games&#45;&gt;javascript</title>
<path fill="none" stroke="black" d="M143.686,-454.108C143.686,-454.108 143.686,-347.148 143.686,-347.148"/>
<ellipse fill="none" stroke="black" cx="143.686" cy="-343.148" rx="4" ry="4"/>
</g>
<!-- create_apps&#45;&gt;create_app_os -->
<g id="edge18" class="edge"><title>create_apps&#45;&gt;create_app_os</title>
<path fill="none" stroke="black" d="M447.481,-533.327C447.481,-533.327 447.481,-498.695 447.481,-498.695"/>
<ellipse fill="none" stroke="black" cx="447.481" cy="-494.695" rx="4" ry="4"/>
</g>
<!-- create_science&#45;&gt;python -->
<g id="edge15" class="edge"><title>create_science&#45;&gt;python</title>
<path fill="none" stroke="black" d="M885.469,-533.219C885.469,-533.219 885.469,-347.072 885.469,-347.072"/>
<ellipse fill="none" stroke="black" cx="885.469" cy="-343.072" rx="4" ry="4"/>
</g>
<!-- create_apcs&#45;&gt;create_apcs_sure -->
<g id="edge16" class="edge"><title>create_apcs&#45;&gt;create_apcs_sure</title>
<path fill="none" stroke="black" d="M715.21,-533.327C715.21,-533.327 715.21,-505.605 715.21,-505.605"/>
<ellipse fill="none" stroke="black" cx="715.21" cy="-501.605" rx="4" ry="4"/>
</g>
<!-- create_unix&#45;&gt;c -->
<g id="edge22" class="edge"><title>create_unix&#45;&gt;c</title>
<path fill="none" stroke="black" d="M569.21,-533.327C569.21,-533.327 569.21,-498.421 569.21,-498.421"/>
<ellipse fill="none" stroke="black" cx="569.21" cy="-494.421" rx="4" ry="4"/>
</g>
<!-- create_apcs_sure_yes&#45;&gt;java -->
<g id="edge20" class="edge"><title>create_apcs_sure_yes&#45;&gt;java</title>
<path fill="none" stroke="black" d="M715.37,-393C708.722,-393 704.359,-393 704.359,-393 704.359,-393 704.359,-347.017 704.359,-347.017"/>
<ellipse fill="none" stroke="black" cx="704.359" cy="-343.017" rx="4" ry="4"/>
</g>
<!-- create_apcs_sure_no&#45;&gt;images -->
<g id="edge21" class="edge"><title>create_apcs_sure_no&#45;&gt;images</title>
<path fill="none" stroke="black" d="M592.537,-374.55C592.537,-362.879 592.537,-350 592.537,-350 592.537,-350 426.995,-350 426.995,-350 426.995,-350 426.995,-347.126 426.995,-347.126"/>
<ellipse fill="none" stroke="black" cx="426.995" cy="-343.126" rx="4" ry="4"/>
</g>
<!-- os_android&#45;&gt;java -->
<g id="edge26" class="edge"><title>os_android&#45;&gt;java</title>
<path fill="none" stroke="black" d="M555.711,-375.002C555.711,-353.366 555.711,-320 555.711,-320 555.711,-320 648.959,-320 648.959,-320"/>
<ellipse fill="none" stroke="black" cx="652.959" cy="-320" rx="4" ry="4"/>
</g>
<!-- os_ios&#45;&gt;objc -->
<g id="edge27" class="edge"><title>os_ios&#45;&gt;objc</title>
<path fill="none" stroke="black" d="M472.854,-374.827C472.854,-374.827 472.854,-347.027 472.854,-347.027"/>
<ellipse fill="none" stroke="black" cx="472.855" cy="-343.027" rx="4" ry="4"/>
</g>
<!-- os_all&#45;&gt;python -->
<g id="edge28" class="edge"><title>os_all&#45;&gt;python</title>
<path fill="none" stroke="black" d="M356.21,-374.993C356.21,-368.16 356.21,-362 356.21,-362 356.21,-362 866.951,-362 866.951,-362 866.951,-362 866.951,-346.989 866.951,-346.989"/>
<ellipse fill="none" stroke="black" cx="866.951" cy="-342.989" rx="4" ry="4"/>
</g>
<!-- os_all&#45;&gt;javascript -->
<g id="edge29" class="edge"><title>os_all&#45;&gt;javascript</title>
<path fill="none" stroke="black" d="M294.617,-393C264.418,-393 234.452,-393 234.452,-393 234.452,-393 234.452,-347.017 234.452,-347.017"/>
<ellipse fill="none" stroke="black" cx="234.452" cy="-343.017" rx="4" ry="4"/>
</g>
<!-- start -->
<g id="node33" class="node"><title>start</title>
<polygon fill="none" stroke="none" points="452.69,-874.523 257.73,-874.523 257.73,-836.523 452.69,-836.523 452.69,-874.523"/>
<polyline fill="none" stroke="black" points="257.73,-836.523 452.69,-836.523 "/>
<text text-anchor="middle" x="355.21" y="-846.523" font-family="ScratchFont" font-size="30.00">I know Scratch!</text>
</g>
<!-- start&#45;&gt;powerful -->
<g id="edge1" class="edge"><title>start&#45;&gt;powerful</title>
<path fill="none" stroke="black" d="M355.21,-836.344C355.21,-836.344 355.21,-808.821 355.21,-808.821"/>
<ellipse fill="none" stroke="black" cx="355.21" cy="-804.821" rx="4" ry="4"/>
</g>
</g>
</svg>
